<svg width="90" height="90" viewBox="0 0 90 90" fill="none" xmlns="http://www.w3.org/2000/svg">
<g filter="url(#filter0_d_96_1344)">
<circle cx="40.5302" cy="40.5302" r="39.5302" stroke="#BA0000" stroke-width="2" shape-rendering="crispEdges"/>
</g>
<path d="M50.1029 11.2253C51.5537 11.7215 52.481 12.5742 52.8848 13.7833C53.3012 14.9967 53.1943 16.5243 52.5643 18.3662C51.9343 20.2081 51.0832 21.4812 50.0109 22.1854C48.9512 22.8939 47.696 23 46.2452 22.5038C44.7944 22.0075 43.8671 21.1549 43.4633 19.9458C43.0595 18.7367 43.1727 17.2112 43.8027 15.3693C44.4327 13.5274 45.2775 12.2522 46.3372 11.5437C47.3969 10.8352 48.6521 10.729 50.1029 11.2253ZM49.5333 12.8906C48.625 12.5799 47.8588 12.6983 47.2347 13.2458C46.6149 13.7806 46.0827 14.6978 45.6383 15.9972C45.1938 17.2966 45.0506 18.3538 45.2087 19.1688C45.3711 19.9713 45.9064 20.5278 46.8148 20.8385C47.7357 21.1535 48.5061 21.0436 49.1259 20.5087C49.75 19.9612 50.2843 19.0378 50.7287 17.7384C51.1732 16.4389 51.3142 15.388 51.1519 14.5856C50.9938 13.7706 50.4543 13.2056 49.5333 12.8906ZM58.9551 13.154C59.2075 13.2403 59.4067 13.3789 59.5527 13.5698C59.6988 13.7607 59.7244 13.9949 59.6295 14.2724L54.5807 29.0329C54.4858 29.3104 54.3221 29.4799 54.0897 29.5413C53.8573 29.6028 53.615 29.5903 53.3627 29.504C53.123 29.422 52.9301 29.2856 52.784 29.0947C52.6379 28.9038 52.6123 28.6696 52.7073 28.3921L55.4906 20.2549L51.0814 18.7467L51.6315 17.1382L56.0407 18.6464L57.756 13.6316C57.851 13.3541 58.0146 13.1846 58.247 13.1232C58.4794 13.0617 58.7154 13.072 58.9551 13.154Z" fill="#BA0000"/>
<path d="M72.1664 25.1291C72.8079 25.8432 73.3033 26.5542 73.6525 27.2622C74.0106 27.98 74.2097 28.6705 74.2497 29.3335C74.3086 29.9976 74.2084 30.6343 73.9492 31.2435C73.6999 31.8439 73.2975 32.3936 72.7421 32.8926C71.6213 33.8994 70.3831 34.2769 69.0275 34.0249C67.6908 33.774 66.3765 32.9294 65.0844 31.4912C63.7924 30.053 63.093 28.656 62.9862 27.3001C62.8893 25.9353 63.4013 24.7495 64.5221 23.7426C65.0775 23.2436 65.667 22.9022 66.2906 22.7184C66.924 22.5258 67.5633 22.4892 68.2084 22.6087C68.8723 22.7292 69.5375 23.0009 70.2041 23.4237C70.8707 23.8464 71.5248 24.4149 72.1664 25.1291ZM70.9017 26.2652C70.4206 25.7296 69.9467 25.3218 69.4802 25.0419C69.0235 24.7531 68.5753 24.5733 68.1353 24.5025C67.7142 24.4328 67.3113 24.4631 66.9266 24.5936C66.542 24.7241 66.186 24.9363 65.8587 25.2304C65.5313 25.5244 65.2823 25.8557 65.1115 26.2242C64.9407 26.5928 64.8625 26.9946 64.877 27.4297C64.9103 27.8657 65.0412 28.3307 65.2697 28.8244C65.5081 29.3093 65.8679 29.8195 66.3491 30.3551C66.8302 30.8907 67.2991 31.3029 67.7557 31.5917C68.2223 31.8716 68.6661 32.0465 69.0872 32.1162C69.5272 32.187 69.9395 32.1571 70.3242 32.0267C70.7088 31.8962 71.0648 31.6839 71.3921 31.3899C71.7194 31.0958 71.9685 30.7645 72.1393 30.396C72.3101 30.0275 72.3788 29.6252 72.3455 29.1891C72.3311 28.754 72.2046 28.294 71.9662 27.8092C71.7377 27.3154 71.3829 26.8008 70.9017 26.2652ZM62.7285 29.4673C62.9067 29.6657 63.0131 29.8838 63.0476 30.1217C63.082 30.3596 62.9951 30.5721 62.7868 30.7592L60.9866 32.3765L63.7667 35.4711L65.5669 33.8538C65.7752 33.6667 65.9958 33.603 66.2286 33.6627C66.4615 33.7223 66.667 33.8514 66.8452 34.0497C67.0234 34.2481 67.1298 34.4662 67.1642 34.7041C67.1987 34.942 67.1118 35.1545 66.9035 35.3416L65.1033 36.9589L67.5225 39.6518C67.6829 39.8303 67.7392 40.0127 67.6915 40.199C67.6526 40.3952 67.5489 40.5691 67.3803 40.7205C67.2117 40.872 67.0228 40.961 66.8137 40.9876C66.6134 41.0241 66.4331 40.9531 66.2727 40.7745L55.981 29.3185C55.8206 29.14 55.7648 28.9481 55.8136 28.743C55.8712 28.5478 55.9844 28.3745 56.153 28.223C56.3216 28.0715 56.5011 27.982 56.6914 27.9544C56.8906 27.9368 57.0704 28.0172 57.2308 28.1958L59.65 30.8887L61.4502 29.2714C61.6585 29.0843 61.8791 29.0206 62.1119 29.0802C62.3448 29.1399 62.5503 29.2689 62.7285 29.4673Z" fill="#BA0000"/>
<path d="M27.2522 15.4317C28.4302 15.2031 29.3945 15.308 30.1451 15.7464C30.8932 16.1717 31.3586 16.8556 31.5415 17.798C31.7244 18.7404 31.5497 19.5553 31.0176 20.2426C30.4829 20.9168 29.6265 21.3682 28.4485 21.5967C27.2574 21.8279 26.2878 21.7308 25.5397 21.3055C24.7891 20.8671 24.3224 20.1767 24.1395 19.2343C23.9567 18.2919 24.1326 17.4836 24.6673 16.8094C25.1994 16.1221 26.0611 15.6629 27.2522 15.4317ZM26.3296 10.7823C26.5914 10.7315 26.8332 10.7525 27.0549 10.8453C27.2766 10.9381 27.4142 11.122 27.4675 11.3968L27.7037 12.6141L30.4721 12.0769C30.7077 12.0312 30.8944 12.0833 31.0321 12.2331C31.1829 12.3804 31.2799 12.5653 31.3231 12.7879C31.3663 13.0104 31.3455 13.2181 31.2607 13.4112C31.1865 13.5885 31.0315 13.7001 30.7959 13.7458L23.0602 15.2469C22.8115 15.2951 22.613 15.2522 22.4648 15.118C22.327 14.9681 22.2366 14.7819 22.1934 14.5594C22.1502 14.3369 22.1645 14.1304 22.2362 13.9399C22.3209 13.7469 22.4877 13.6263 22.7364 13.578L25.76 12.9913L25.5238 11.774C25.4704 11.4991 25.5292 11.2772 25.7002 11.1082C25.8842 10.9367 26.094 10.8281 26.3296 10.7823ZM27.5455 16.9435C26.9173 17.0654 26.4544 17.3047 26.1568 17.6612C25.8568 18.0047 25.7537 18.4185 25.8477 18.9028C25.9417 19.3871 26.1933 19.739 26.6026 19.9584C27.0093 20.1647 27.5268 20.2069 28.1551 20.0849C28.7834 19.963 29.2476 19.7303 29.5476 19.3869C29.8452 19.0304 29.947 18.6099 29.853 18.1256C29.759 17.6413 29.5086 17.296 29.1019 17.0897C28.6926 16.8704 28.1738 16.8216 27.5455 16.9435ZM36.3188 8.92549C36.5544 8.87977 36.7766 8.90458 36.9852 8.99991C37.2044 9.07962 37.3394 9.25036 37.3902 9.51215L39.2151 18.9167C39.2659 19.1785 39.2058 19.3939 39.0349 19.5629C38.8745 19.7162 38.6765 19.8158 38.4409 19.8615C38.2184 19.9047 37.9975 19.8864 37.7783 19.8067C37.5697 19.7114 37.44 19.5328 37.3892 19.271L36.631 15.3639L34.5498 15.7678L35.2927 19.5963C35.3435 19.8581 35.2822 20.067 35.1087 20.2229C34.9483 20.3762 34.7569 20.4745 34.5344 20.5177C34.3118 20.5609 34.091 20.5426 33.8718 20.4629C33.6657 20.3806 33.5372 20.2086 33.4864 19.9468L31.692 10.6993C31.6412 10.4376 31.696 10.23 31.8564 10.0766C32.0299 9.92072 32.2279 9.82118 32.4504 9.778C32.6729 9.73482 32.8872 9.75436 33.0933 9.8366C33.3125 9.9163 33.4475 10.087 33.4983 10.3488L34.2336 14.1382L36.3148 13.7343L35.5643 9.86646C35.5135 9.60467 35.5683 9.3971 35.7286 9.24374C35.8996 9.07475 36.0963 8.96867 36.3188 8.92549ZM30.1171 22.0064C30.3658 21.9581 30.601 21.9804 30.8227 22.0732C31.0444 22.166 31.182 22.3498 31.2353 22.6247L31.3268 23.0959C31.3801 23.3708 31.4324 23.6051 31.4835 23.7989C31.5478 23.9902 31.6292 24.1645 31.7276 24.322C31.8261 24.4795 31.9442 24.6331 32.0819 24.7829C32.2302 24.9172 32.415 25.0646 32.6364 25.2254C33.0427 25.4997 33.4297 25.7438 33.7971 25.9577C33.9927 26.0556 34.1297 26.0969 34.2083 26.0817C34.2999 26.0639 34.4181 25.9731 34.5629 25.8091C34.6789 25.6372 34.8068 25.4562 34.9464 25.2661C35.0992 25.0735 35.2389 24.8834 35.3655 24.6959C35.5106 24.464 35.6203 24.2593 35.6946 24.0819C35.7793 23.8889 35.8379 23.701 35.8704 23.5181C35.9028 23.3353 35.9065 23.1444 35.8815 22.9455C35.8696 22.7441 35.837 22.506 35.7836 22.2311L35.6922 21.7599C35.6388 21.485 35.6911 21.2643 35.849 21.0979C36.0199 20.9289 36.2363 20.819 36.498 20.7682C36.7467 20.7199 36.9819 20.7422 37.2037 20.835C37.4254 20.9278 37.563 21.1116 37.6163 21.3865L37.7077 21.8577C37.7611 22.1326 37.8211 22.3722 37.888 22.5765C37.9679 22.7784 38.0649 22.9633 38.179 23.1313C38.3061 23.2967 38.4582 23.4506 38.6352 23.5928C38.8097 23.7219 39.0272 23.8631 39.2878 24.0162C39.6059 24.1854 39.9527 24.3626 40.3281 24.5478C40.7036 24.733 41.0622 24.9011 41.4039 25.0521C41.6257 25.1449 41.7581 25.3026 41.8013 25.5251C41.8576 25.7451 41.8315 25.9606 41.7231 26.1718C41.6252 26.3674 41.4701 26.5129 41.2577 26.6085C41.0454 26.704 40.8127 26.6948 40.5597 26.5809C40.2623 26.4485 39.9715 26.3148 39.6873 26.1798C39.403 26.0448 39.1319 25.9073 38.8738 25.7672C38.342 25.4765 37.9551 25.2324 37.713 25.0349C37.4735 24.8505 37.3085 24.6652 37.2181 24.479L37.1985 24.4828C37.1973 24.6868 37.1332 24.9165 37.0062 25.172C36.8792 25.4276 36.6273 25.8092 36.2505 26.317C36.1214 26.4914 35.991 26.6593 35.8593 26.8207C35.7302 26.9952 35.5985 27.1565 35.4643 27.3048C35.1431 27.6795 34.8451 27.8935 34.5702 27.9469C34.3084 27.9977 33.9585 27.9094 33.5205 27.682C33.3406 27.5947 33.1581 27.4943 32.9731 27.3808C32.7906 27.2803 32.6069 27.1734 32.4219 27.0599C31.8825 26.7299 31.5061 26.4702 31.2928 26.2807C31.0795 26.0912 30.9328 25.8955 30.8529 25.6937L30.8333 25.6975C30.811 25.9328 30.7233 26.1807 30.5702 26.4413C30.4326 26.7125 30.1716 27.0823 29.7872 27.5508C29.6002 27.7772 29.3936 28.0074 29.1674 28.2415C28.9568 28.4861 28.7384 28.7254 28.5122 28.9594C28.3201 29.1597 28.1065 29.2487 27.8713 29.2264C27.6517 29.2147 27.4587 29.1299 27.2922 28.972C27.1127 28.8167 27.0013 28.6278 26.9581 28.4053C26.9281 28.1803 26.9985 27.9832 27.1694 27.8142C27.4298 27.5464 27.6995 27.2564 27.9785 26.9442C28.2575 26.632 28.5128 26.338 28.7445 26.0621C28.9289 25.8226 29.0779 25.6103 29.1914 25.4253C29.3023 25.2272 29.3793 25.0289 29.4223 24.8305C29.4784 24.6294 29.4992 24.4217 29.4847 24.2071C29.4833 23.9901 29.456 23.7441 29.4026 23.4693L29.3112 22.9981C29.2579 22.7232 29.3167 22.5013 29.4876 22.3323C29.6585 22.1633 29.8684 22.0547 30.1171 22.0064Z" fill="#BA0000"/>
<path d="M11.559 28.1066C11.7277 27.9358 11.9111 27.8734 12.1094 27.9193C12.317 27.9558 12.5062 28.0583 12.677 28.227C12.8383 28.3863 12.9384 28.5695 12.9774 28.7767C13.0163 28.965 12.9514 29.1445 12.7827 29.3153L8.84743 33.2995C8.65067 33.4987 8.65189 33.6966 8.8511 33.8934L13.8882 38.8687C14.0874 39.0655 14.2854 39.0643 14.4822 38.8651C15.4098 37.9259 16.2481 37.0298 16.9971 36.1766C17.7366 35.3141 18.4336 34.4471 19.0882 33.5757C19.2286 33.3956 19.3977 33.3098 19.5958 33.318C19.8032 33.3167 19.9969 33.3862 20.1769 33.5265C20.3664 33.6762 20.4995 33.8545 20.5762 34.0615C20.6528 34.2495 20.6209 34.4336 20.4806 34.6136C20.2001 34.9925 19.8867 35.3951 19.5405 35.8215C19.2037 36.2384 18.8199 36.6934 18.3893 37.1863C17.9586 37.6792 17.4717 38.2196 16.9285 38.8075C16.3851 39.3766 15.7715 40.0074 15.0875 40.6998C14.6752 41.1172 14.3136 41.3316 14.0025 41.3429C13.7008 41.3448 13.346 41.1443 12.9381 40.7414L6.99031 34.8666C6.58241 34.4637 6.37752 34.1114 6.37566 33.8097C6.38317 33.4985 6.59306 33.1342 7.00532 32.7168L11.559 28.1066ZM13.7398 23.9918C13.9272 23.8021 14.1386 23.683 14.374 23.6344C14.6094 23.5858 14.8315 23.6645 15.0402 23.8707L18.7398 27.5249L20.2858 25.9596C20.4732 25.7699 20.666 25.698 20.8643 25.7439C21.0624 25.771 21.2469 25.8689 21.4176 26.0375C21.5884 26.2062 21.6933 26.3941 21.7322 26.6013C21.7806 26.799 21.7111 26.9927 21.5237 27.1824L19.9777 28.7476L26.1389 34.8332C26.3476 35.0394 26.4291 35.2604 26.3834 35.4964C26.3378 35.7324 26.2212 35.9453 26.0338 36.135C25.8464 36.3247 25.635 36.4439 25.3996 36.4925C25.1642 36.541 24.9422 36.4623 24.7335 36.2561L13.6347 25.2936C13.426 25.0874 13.3445 24.8664 13.3902 24.6304C13.4359 24.3944 13.5524 24.1816 13.7398 23.9918Z" fill="#BA0000"/>
<path d="M50.9668 45.3361C50.9668 51.0329 46.1531 57.0265 40.6518 57.7142C35.1504 57.0265 30.3367 51.0329 30.3367 45.3361C30.3367 39.6392 34.9549 35.021 40.6518 35.021C46.3486 35.021 50.9668 39.6392 50.9668 45.3361Z" fill="#D9D9D9"/>
<path d="M51.5907 43.9606C51.5907 48.1805 45.4017 46.2019 39.9003 46.7113C34.3989 46.2019 29.5852 48.6979 29.5852 42.5853C29.5852 38.3654 33.7407 33.6455 40.6518 33.6455C48.9038 33.6455 51.5907 39.7407 51.5907 43.9606Z" fill="#BA0000"/>
<path d="M29.1107 46.5758C31.278 45.2983 30.3429 48.9869 32.0013 51.2024C33.1364 53.7263 37.532 55.608 33.9915 56.4708C31.7121 57.0263 29.1109 55.651 26.8984 53.5879C23.8807 50.7741 26.9435 47.8533 29.1107 46.5758Z" fill="#BA0000"/>
<path d="M52.3417 46.7115C50.1745 45.434 50.562 47.9339 48.9034 50.1498C47.3709 50.1498 44.7773 53.029 46.8404 54.9635C48.5519 56.5683 53.2342 55.9084 54.1634 53.029C55.0925 50.1498 53.0297 48.0868 52.3417 46.7115Z" fill="#BA0000"/>
<path d="M34.4922 48.3182C34.9676 48.2654 35.4218 48.2024 35.9137 48.2024C36.5206 48.2024 37.1255 48.1445 37.7339 48.1445" stroke="#BA0000" stroke-width="0.5" stroke-linecap="round"/>
<path d="M34.7239 49.7076C35.0586 49.7076 35.3859 49.6254 35.7112 49.5629C36.1245 49.4834 36.5883 49.5339 37.0072 49.5339C37.3653 49.5339 37.7067 49.476 38.0685 49.476C38.167 49.476 38.3017 49.4522 38.3965 49.4792C38.4778 49.5025 38.4287 49.9145 38.4287 49.997C38.4287 50.59 38.3708 51.1656 38.3708 51.7626C38.3708 52.1577 38.8841 52.3871 39.1812 52.4862" stroke="#BA0000" stroke-width="0.5" stroke-linecap="round"/>
<path d="M38.6025 54.3967C38.8558 54.3967 39.0846 54.3747 39.3294 54.342C39.5389 54.3141 39.7626 54.3777 39.9661 54.3099C40.2739 54.2073 40.6292 54.1639 40.947 54.0815C41.0916 54.0441 41.5722 54.0277 41.6706 53.9047C41.727 53.8342 42.507 53.5459 42.5839 53.657C42.791 53.9562 42.2806 54.991 42.0758 55.2071C41.5968 55.7127 40.5926 55.8922 39.9629 55.6124C39.7051 55.4978 39.4878 55.3185 39.2393 55.1943C38.9296 55.0394 38.865 54.9215 38.7183 54.6283" stroke="#BA0000" stroke-width="0.5" stroke-linecap="round"/>
<path d="M41.4387 47.7973C41.6813 47.5816 42.2833 47.5657 42.5836 47.5657C42.9218 47.5657 43.243 47.5078 43.5806 47.5078" stroke="#BA0000" stroke-width="0.5" stroke-linecap="round"/>
<path d="M41.5544 49.4184C41.9229 49.142 42.4414 49.3602 42.8408 49.2318C43.1451 49.134 43.4916 49.0863 43.8121 49.071C44.2155 49.0518 44.6236 49.071 45.0277 49.071" stroke="#BA0000" stroke-width="0.5" stroke-linecap="round"/>
<path d="M19.5146 55.1787L20.5721 58.4335H23.9944L21.2257 60.4451L22.2833 63.6999L19.5146 61.6883L16.7459 63.6999L17.8034 60.4451L15.0347 58.4335H18.457L19.5146 55.1787Z" fill="#BA0000"/>
<path d="M28.9352 61.9077L29.9928 65.1625H33.4151L30.6464 67.1741L31.7039 70.4289L28.9352 68.4173L26.1665 70.4289L27.2241 67.1741L24.4554 65.1625H27.8777L28.9352 61.9077Z" fill="#BA0000"/>
<path d="M51.8141 61.9077L52.8717 65.1625H56.294L53.5253 67.1741L54.5828 70.4289L51.8141 68.4173L49.0455 70.4289L50.103 67.1741L47.3343 65.1625H50.7566L51.8141 61.9077Z" fill="#BA0000"/>
<path d="M61.235 55.1787L62.2926 58.4335H65.7149L62.9462 60.4451L64.0037 63.6999L61.235 61.6883L58.4663 63.6999L59.5239 60.4451L56.7552 58.4335H60.1775L61.235 55.1787Z" fill="#BA0000"/>
<path d="M39.7018 64.5996L40.7594 67.8544H44.1817L41.413 69.866L42.4705 73.1208L39.7018 71.1092L36.9331 73.1208L37.9907 69.866L35.222 67.8544H38.6443L39.7018 64.5996Z" fill="#BA0000"/>
<defs>
<filter id="filter0_d_96_1344" x="0" y="0" width="89.0603" height="89.0605" filterUnits="userSpaceOnUse" color-interpolation-filters="sRGB">
<feFlood flood-opacity="0" result="BackgroundImageFix"/>
<feColorMatrix in="SourceAlpha" type="matrix" values="0 0 0 0 0 0 0 0 0 0 0 0 0 0 0 0 0 0 127 0" result="hardAlpha"/>
<feOffset dx="4" dy="4"/>
<feGaussianBlur stdDeviation="2"/>
<feComposite in2="hardAlpha" operator="out"/>
<feColorMatrix type="matrix" values="0 0 0 0 0 0 0 0 0 0 0 0 0 0 0 0 0 0 0.25 0"/>
<feBlend mode="normal" in2="BackgroundImageFix" result="effect1_dropShadow_96_1344"/>
<feBlend mode="normal" in="SourceGraphic" in2="effect1_dropShadow_96_1344" result="shape"/>
</filter>
</defs>
</svg>
