<svg width="117" height="117" viewBox="0 0 117 117" fill="none" xmlns="http://www.w3.org/2000/svg">
<g filter="url(#filter0_d_96_1545)">
<circle cx="55.4443" cy="54.4443" r="53.4443" stroke="#BA0000" stroke-width="2" shape-rendering="crispEdges"/>
</g>
<path d="M69.4638 60.9002C69.4638 68.5528 62.9975 76.604 55.6075 77.5278C48.2175 76.604 41.7512 68.5528 41.7512 60.9002C41.7512 53.2476 47.9549 47.0439 55.6075 47.0439C63.2601 47.0439 69.4638 53.2476 69.4638 60.9002Z" fill="#D9D9D9"/>
<path d="M70.3015 59.0526C70.3015 64.7212 61.9878 62.0633 54.5977 62.7476C47.2077 62.0633 40.7415 65.4162 40.7415 57.2051C40.7415 51.5365 46.3236 45.1963 55.6072 45.1963C66.6922 45.1963 70.3015 53.384 70.3015 59.0526Z" fill="#BA0000"/>
<path d="M40.1043 62.5655C43.0156 60.8495 41.7594 65.8044 43.9871 68.7804C45.512 72.1708 51.4166 74.6985 46.6606 75.8575C43.5987 76.6037 40.1044 74.7562 37.1324 71.9849C33.0788 68.2051 37.193 64.2815 40.1043 62.5655Z" fill="#BA0000"/>
<path d="M71.3107 62.7477C68.3995 61.0316 68.92 64.3898 66.692 67.3664C64.6334 67.3664 61.1494 71.2341 63.9208 73.8327C66.2198 75.9884 72.5095 75.1019 73.7577 71.234C75.0058 67.3664 72.2348 64.5952 71.3107 62.7477Z" fill="#BA0000"/>
<path d="M47.3335 64.9061C47.9721 64.8352 48.5823 64.7506 49.243 64.7506C50.0583 64.7506 50.8709 64.6729 51.6881 64.6729" stroke="#BA0000" stroke-width="0.5" stroke-linecap="round"/>
<path d="M47.6445 66.7728C48.0942 66.7728 48.5339 66.6624 48.9708 66.5784C49.526 66.4717 50.149 66.5395 50.7118 66.5395C51.1928 66.5395 51.6513 66.4618 52.1374 66.4618C52.2697 66.4618 52.4507 66.4297 52.578 66.4661C52.6872 66.4973 52.6212 67.0508 52.6212 67.1616C52.6212 67.9582 52.5435 68.7314 52.5435 69.5333C52.5435 70.0641 53.233 70.3723 53.6321 70.5054" stroke="#BA0000" stroke-width="0.5" stroke-linecap="round"/>
<path d="M52.8547 73.0714C53.1949 73.0714 53.5023 73.0418 53.8311 72.998C54.1126 72.9604 54.4131 73.0459 54.6864 72.9548C55.0998 72.817 55.5771 72.7587 56.0041 72.648C56.1983 72.5977 56.8439 72.5757 56.9761 72.4104C57.0518 72.3158 58.0996 71.9285 58.203 72.0778C58.4812 72.4796 57.7955 73.8697 57.5204 74.1601C56.877 74.8392 55.528 75.0803 54.6821 74.7044C54.3357 74.5504 54.0439 74.3097 53.7101 74.1428C53.2941 73.9348 53.2072 73.7764 53.0103 73.3824" stroke="#BA0000" stroke-width="0.5" stroke-linecap="round"/>
<path d="M56.6648 64.2067C56.9906 63.9171 57.7993 63.8956 58.2027 63.8956C58.657 63.8956 59.0885 63.8179 59.542 63.8179" stroke="#BA0000" stroke-width="0.5" stroke-linecap="round"/>
<path d="M56.8201 66.3838C57.315 66.0126 58.0115 66.3057 58.5481 66.1332C58.9568 66.0019 59.4222 65.9377 59.8527 65.9172C60.3946 65.8914 60.9429 65.9172 61.4857 65.9172" stroke="#BA0000" stroke-width="0.5" stroke-linecap="round"/>
<path d="M27.214 74.1221L28.6346 78.4942L33.2317 78.4942L29.5125 81.1964L30.9331 85.5686L27.214 82.8664L23.4948 85.5686L24.9154 81.1964L21.1962 78.4942L25.7933 78.4942L27.214 74.1221Z" fill="#BA0000"/>
<path d="M39.8687 83.1611L41.2893 87.5333L45.8865 87.5333L42.1673 90.2355L43.5879 94.6076L39.8687 91.9055L36.1495 94.6076L37.5701 90.2355L33.8509 87.5333L38.4481 87.5333L39.8687 83.1611Z" fill="#BA0000"/>
<path d="M70.6024 83.1611L72.023 87.5333L76.6202 87.5333L72.901 90.2355L74.3216 94.6076L70.6024 91.9055L66.8832 94.6076L68.3038 90.2355L64.5846 87.5333L69.1818 87.5333L70.6024 83.1611Z" fill="#BA0000"/>
<path d="M83.2572 74.1221L84.6778 78.4942L89.275 78.4942L85.5558 81.1964L86.9764 85.5686L83.2572 82.8664L79.538 85.5686L80.9586 81.1964L77.2394 78.4942L81.8366 78.4942L83.2572 74.1221Z" fill="#BA0000"/>
<path d="M54.3316 86.7769L55.7522 91.149L60.3494 91.149L56.6302 93.8512L58.0508 98.2234L54.3316 95.5212L50.6124 98.2234L52.033 93.8512L48.3138 91.149L52.911 91.149L54.3316 86.7769Z" fill="#BA0000"/>
<path d="M14.4552 39.6283C14.5548 39.41 14.7056 39.2882 14.9075 39.2631C15.115 39.2259 15.328 39.257 15.5463 39.3566C15.7525 39.4507 15.9096 39.5883 16.0175 39.7694C16.1188 39.9328 16.1197 40.1237 16.0201 40.3421L13.6961 45.4371C13.5799 45.6919 13.6492 45.8773 13.9039 45.9935L20.3455 48.9317C20.6002 49.0479 20.7857 48.9786 20.9019 48.7239C21.4497 47.5229 21.9284 46.393 22.3381 45.3342C22.7356 44.2699 23.0918 43.216 23.4065 42.1725C23.4763 41.9552 23.6056 41.8164 23.7944 41.7559C23.9887 41.6833 24.1945 41.682 24.4118 41.7518C24.6412 41.8271 24.8276 41.9487 24.9708 42.1166C25.1074 42.2669 25.1408 42.4507 25.071 42.668C24.938 43.1202 24.7824 43.6061 24.604 44.1256C24.4312 44.633 24.2274 45.1922 23.9927 45.8032C23.758 46.4142 23.4867 47.0892 23.179 47.8281C22.8646 48.5494 22.5055 49.3528 22.1016 50.2383C21.8581 50.7721 21.5923 51.0978 21.3041 51.2155C21.0215 51.3211 20.6194 51.2549 20.0978 51.017L12.4916 47.5476C11.97 47.3097 11.6564 47.0494 11.5508 46.7667C11.4508 46.472 11.5225 46.0577 11.766 45.524L14.4552 39.6283ZM15.0869 35.0144C15.1976 34.7718 15.3551 34.5872 15.5594 34.4605C15.7637 34.3339 15.9993 34.3314 16.2661 34.4532L20.9972 36.6112L21.9102 34.6095C22.0209 34.3669 22.1772 34.2331 22.3792 34.2079C22.5745 34.1652 22.7814 34.1936 22.9998 34.2932C23.2181 34.3928 23.3813 34.5331 23.4892 34.7142C23.6026 34.8832 23.604 35.089 23.4933 35.3316L22.5803 37.3333L30.4594 40.9271C30.7263 41.0489 30.8789 41.2284 30.9172 41.4657C30.9555 41.703 30.9193 41.9429 30.8086 42.1855C30.698 42.4282 30.5405 42.6128 30.3362 42.7394C30.1319 42.8661 29.8963 42.8685 29.6294 42.7468L15.4362 36.2728C15.1693 36.1511 15.0167 35.9716 14.9784 35.7343C14.9401 35.497 14.9762 35.257 15.0869 35.0144Z" fill="#BA0000"/>
<path d="M26.1898 24.27C27.6321 23.0027 28.9388 22.2274 30.1097 21.944C31.2806 21.6607 32.2533 21.9597 33.0278 22.8411C33.811 23.7326 33.9868 24.7407 33.5551 25.8654C33.1147 26.9801 32.1732 28.1711 30.7309 29.4384C29.2885 30.7057 27.9863 31.4861 26.8242 31.7794C25.6532 32.0628 24.6761 31.7587 23.8929 30.8673C23.1184 29.9859 22.947 28.9828 23.3787 27.858C23.8104 26.7333 24.7474 25.5373 26.1898 24.27ZM27.2591 25.487C26.1773 26.4374 25.4922 27.2435 25.2038 27.9051C24.9255 28.5579 24.9843 29.1097 25.3803 29.5604C25.7763 30.0111 26.316 30.1405 26.9991 29.9484C27.6924 29.7476 28.5799 29.1719 29.6616 28.2214C30.7434 27.271 31.4235 26.4693 31.7018 25.8165C31.9902 25.1549 31.9364 24.5988 31.5404 24.148C31.1443 23.6973 30.5997 23.5724 29.9065 23.7732C29.2233 23.9653 28.3408 24.5365 27.2591 25.487ZM37.4394 25.4078C37.6197 25.2494 37.8027 25.1951 37.9884 25.2449C38.1842 25.2859 38.3613 25.3965 38.5197 25.5768C38.6693 25.7471 38.7562 25.9369 38.7805 26.1463C38.806 26.3369 38.7286 26.5114 38.5483 26.6699L26.9794 36.8346C26.7991 36.993 26.6111 37.0517 26.4153 37.0107C26.2208 36.9509 26.0487 36.8358 25.8991 36.6656C25.7407 36.4853 25.6487 36.2998 25.6233 36.1092C25.6078 35.9098 25.6902 35.7309 25.8705 35.5725L37.4394 25.4078ZM37.3415 29.9931C37.7823 29.6059 38.1532 29.422 38.4542 29.4414C38.7653 29.4521 39.1101 29.6727 39.4885 30.1035L41.7195 32.6426C42.0979 33.0733 42.2724 33.4436 42.2429 33.7535C42.2234 34.0545 41.9934 34.3987 41.5526 34.7859L34.6414 40.8583C34.2006 41.2455 33.8297 41.4294 33.5287 41.41C33.2276 41.3905 32.8879 41.1655 32.5094 40.7347L30.2785 38.1956C29.9 37.7649 29.7206 37.399 29.74 37.0979C29.7595 36.7969 29.9896 36.4527 30.4303 36.0655L37.3415 29.9931ZM32.187 36.7317C32.0668 36.8373 32.0037 36.9371 31.9976 37.0312C31.9927 37.1065 32.0387 37.1992 32.1355 37.3094L33.6272 39.0072C33.724 39.1174 33.8101 39.1749 33.8853 39.1797C33.9794 39.1858 34.0866 39.1361 34.2068 39.0304L39.7959 34.1197C39.9161 34.0141 39.9742 33.9187 39.9703 33.8334C39.9852 33.7493 39.9442 33.6522 39.8474 33.542L38.3557 31.8442C38.2589 31.734 38.1678 31.6809 38.0825 31.6849C37.9985 31.67 37.8963 31.7153 37.7761 31.821L32.187 36.7317Z" fill="#BA0000"/>
<path d="M51.4704 15.2381C52.0526 15.166 52.4627 15.2228 52.7006 15.4083C52.9517 15.5922 53.1125 15.9687 53.1829 16.5377L53.6371 20.2097C53.7075 20.7787 53.6433 21.1829 53.4445 21.4225C53.259 21.6604 52.8751 21.8154 52.2929 21.8874L48.0453 22.4128C47.8865 22.4325 47.7781 22.4795 47.7201 22.5538C47.6737 22.6133 47.6595 22.7158 47.6775 22.8614L48.0017 25.4814C48.0197 25.6269 48.0592 25.7295 48.1203 25.7891C48.193 25.8339 48.3088 25.8464 48.4676 25.8268C49.7908 25.6631 51.0107 25.4786 52.1273 25.2733C53.2439 25.068 54.3291 24.8263 55.3829 24.5482C55.6046 24.4939 55.7906 24.5313 55.9409 24.6605C56.1029 24.7748 56.211 24.9428 56.2653 25.1645C56.3212 25.3994 56.3151 25.6218 56.247 25.8318C56.1906 26.0269 56.0515 26.1515 55.8298 26.2058C55.3749 26.3293 54.8794 26.451 54.3434 26.5711C53.8207 26.6895 53.2375 26.8086 52.5941 26.9285C51.9506 27.0484 51.2335 27.1707 50.4428 27.2954C49.6637 27.4052 48.7912 27.5199 47.8252 27.6394C47.243 27.7114 46.8263 27.6555 46.5752 27.4716C46.3373 27.286 46.1831 26.9088 46.1127 26.3398L45.6438 22.5487C45.5734 21.9797 45.6318 21.5828 45.8189 21.3582C46.0177 21.1186 46.4082 20.9628 46.9904 20.8908L51.2579 20.3629C51.5358 20.3285 51.6575 20.1724 51.6232 19.8945L51.3138 17.3936C51.2811 17.1289 51.1257 17.0138 50.8479 17.0482L45.7467 17.6792C45.4953 17.7103 45.3061 17.6464 45.1789 17.4875C45.0518 17.3285 44.9743 17.1366 44.9465 16.9116C44.9186 16.6867 44.947 16.4816 45.0316 16.2965C45.1162 16.1114 45.2842 16.0033 45.5356 15.9722L51.4704 15.2381ZM57.0743 13.2954C57.3389 13.2627 57.5787 13.3002 57.7935 13.4079C58.0084 13.5157 58.1338 13.7152 58.1698 14.0063L58.8082 19.1669L60.9916 18.8969C61.2562 18.8641 61.4521 18.9272 61.5792 19.0861C61.718 19.2302 61.8021 19.4213 61.8315 19.6595C61.861 19.8977 61.8268 20.1102 61.729 20.2969C61.6444 20.482 61.4698 20.591 61.2052 20.6237L59.0218 20.8938L60.085 29.4883C60.121 29.7794 60.0479 30.0034 59.8658 30.1603C59.6837 30.3171 59.4603 30.4119 59.1957 30.4447C58.931 30.4774 58.6913 30.4399 58.4764 30.3321C58.2615 30.2244 58.1361 30.0249 58.1001 29.7338L56.1849 14.2518C56.1489 13.9607 56.222 13.7367 56.4041 13.5798C56.5862 13.4229 56.8096 13.3281 57.0743 13.2954Z" fill="#BA0000"/>
<path d="M72.0179 17.2064C73.8655 17.7757 75.2043 18.5021 76.0342 19.3857C76.8769 20.2732 77.1176 21.3031 76.7564 22.4754C76.3952 23.6476 75.6166 24.3634 74.4205 24.6227C73.2372 24.8859 71.7217 24.7329 69.8741 24.1636C68.0265 23.5943 66.6814 22.8659 65.8387 21.9784C65.0087 21.0948 64.7744 20.0669 65.1356 18.8946C65.4968 17.7223 66.2691 17.0046 67.4524 16.7413C68.6484 16.4821 70.1703 16.6371 72.0179 17.2064ZM71.5349 18.7737C70.1588 18.3496 69.1055 18.2134 68.3752 18.3651C67.6615 18.5079 67.2123 18.8788 67.0278 19.4776C66.8433 20.0765 67.0038 20.6422 67.5094 21.1747C68.0317 21.6984 68.9809 22.1723 70.3571 22.5963C71.7332 23.0203 72.7781 23.1609 73.4919 23.0181C74.2222 22.8665 74.6797 22.4912 74.8642 21.8923C75.0488 21.2934 74.8799 20.7321 74.3576 20.2085C73.852 19.676 72.9111 19.1977 71.5349 18.7737ZM76.7733 27.9218C77.0027 27.9925 77.1428 28.1264 77.1937 28.3234C77.2613 28.5117 77.2617 28.7141 77.195 28.9307C77.1282 29.1473 77.012 29.3208 76.8463 29.4511C76.6972 29.5726 76.508 29.598 76.2786 29.5273L70.086 27.6192L69.2614 30.295C69.1829 30.5499 69.0304 30.7052 68.804 30.761C68.5902 30.8207 68.3496 30.8093 68.082 30.7269C67.8271 30.6483 67.6218 30.5223 67.466 30.3487C67.323 30.1791 67.2907 29.9668 67.3692 29.712L68.1937 27.0361L61.5615 24.9925C61.3321 24.9218 61.1836 24.7924 61.1161 24.6041C61.0652 24.4071 61.0731 24.2002 61.1399 23.9836C61.2066 23.767 61.3145 23.5979 61.4636 23.4764C61.6293 23.3461 61.8268 23.3163 62.0562 23.387L76.7733 27.9218ZM63.55 27.3004C63.8049 27.3789 64.0082 27.5114 64.1601 27.6977C64.312 27.884 64.3447 28.1173 64.2583 28.3976L63.4574 30.997C63.3749 31.2646 63.4675 31.4396 63.7351 31.5221L72.7756 34.3078C73.005 34.3784 73.1471 34.5059 73.2019 34.6903C73.2655 34.8912 73.264 35.1 73.1972 35.3167C73.1305 35.5333 73.0143 35.7067 72.8485 35.837C72.6956 35.9713 72.5044 36.0031 72.275 35.9324L62.3744 32.8817C61.8137 32.7089 61.4629 32.4892 61.3218 32.2225C61.1808 31.9558 61.1947 31.5485 61.3635 31.0006L62.347 27.8087C62.4334 27.5284 62.5918 27.3539 62.8222 27.2854C63.0526 27.2169 63.2952 27.2219 63.55 27.3004Z" fill="#BA0000"/>
<path d="M92.3287 31.9679C92.509 32.1263 92.582 32.3058 92.5477 32.5065C92.5235 32.7159 92.4365 32.9057 92.2869 33.076C92.1373 33.2463 91.9602 33.3569 91.7557 33.4079C91.5611 33.4677 91.3737 33.4184 91.1934 33.26L84.3873 27.28C84.177 27.0952 83.9838 27.103 83.8078 27.3033L80.7716 30.7589C80.5868 30.9693 80.5995 31.1668 80.8099 31.3517L87.7662 37.4637C87.9465 37.6221 88.0195 37.8016 87.9852 38.0022C87.9698 38.2016 87.8873 38.3865 87.7376 38.5567C87.588 38.727 87.411 38.8377 87.2064 38.8887C87.0119 38.9485 86.8244 38.8992 86.6441 38.7408L79.0117 32.0347C78.571 31.6475 78.3409 31.3033 78.3214 31.0023C78.302 30.7012 78.4815 30.3353 78.8599 29.9046L82.7146 25.5174C83.093 25.0867 83.4327 24.8617 83.7338 24.8422C84.0349 24.8228 84.4058 25.0066 84.8465 25.3939L92.3287 31.9679ZM85.7568 42.9929C85.9371 43.1513 86.0101 43.3308 85.9758 43.5314C85.9604 43.7308 85.8734 43.9207 85.715 44.101C85.5654 44.2713 85.3883 44.3819 85.1838 44.4329C84.9892 44.4927 84.8018 44.4434 84.6215 44.285L73.0526 34.1203C72.8723 33.9619 72.7943 33.778 72.8186 33.5686C72.8529 33.3679 72.9448 33.1825 73.0944 33.0122C73.2528 32.8319 73.4249 32.7169 73.6106 32.6671C73.8152 32.6161 74.0076 32.6698 74.1879 32.8282L85.7568 42.9929Z" fill="#BA0000"/>
<path d="M101.063 48.8105C101.306 49.3443 101.375 49.7525 101.269 50.0351C101.169 50.3298 100.859 50.5962 100.337 50.8341L97.9169 51.938C97.4074 52.1704 97.0085 52.2278 96.7204 52.1101C96.4378 52.0045 96.1747 51.6848 95.9312 51.1511L92.5366 43.7087C92.4204 43.454 92.2349 43.3847 91.9801 43.5009L90.6154 44.1234C90.3728 44.2341 90.3096 44.4168 90.4258 44.6715L94.3516 53.2784C94.4512 53.4968 94.4443 53.6905 94.3309 53.8595C94.223 54.0406 94.0659 54.1782 93.8597 54.2722C93.6535 54.3663 93.4466 54.3947 93.2391 54.3574C93.0493 54.3268 92.9045 54.2023 92.8049 53.9839L88.5305 44.6128C88.287 44.079 88.2153 43.6647 88.3153 43.37C88.4209 43.0874 88.7345 42.8271 89.2561 42.5891L91.6763 41.4853C92.1979 41.2473 92.5939 41.1839 92.8644 41.295C93.1526 41.4127 93.4184 41.7384 93.6619 42.2722L97.0566 49.7145C97.1728 49.9693 97.3582 50.0386 97.613 49.9224L98.9595 49.3082C99.2143 49.192 99.2835 49.0065 99.1673 48.7517L95.4075 40.5087C95.3079 40.2904 95.306 40.0934 95.4017 39.9178C95.5152 39.7489 95.675 39.6173 95.8812 39.5233C96.0875 39.4292 96.2916 39.3947 96.4935 39.4198C96.701 39.4571 96.8546 39.5849 96.9542 39.8033L101.063 48.8105ZM87.9644 50.9381L90.7449 57.0339C90.8445 57.2522 90.8376 57.4459 90.7241 57.6149C90.6284 57.7905 90.4774 57.9253 90.2711 58.0194C90.0649 58.1134 89.8581 58.1418 89.6506 58.1046C89.4486 58.0795 89.2978 57.9577 89.1982 57.7394L82.8073 43.7281C82.7077 43.5098 82.7118 43.31 82.8197 43.1289C82.9331 42.9599 83.093 42.8284 83.2992 42.7343C83.5054 42.6403 83.7035 42.6086 83.8933 42.6392C84.1008 42.6765 84.2544 42.8043 84.3539 43.0226L87.1344 49.1184L90.7737 47.4584L91.6037 49.2781L87.9644 50.9381Z" fill="#BA0000"/>
<defs>
<filter id="filter0_d_96_1545" x="0" y="0" width="116.889" height="116.889" filterUnits="userSpaceOnUse" color-interpolation-filters="sRGB">
<feFlood flood-opacity="0" result="BackgroundImageFix"/>
<feColorMatrix in="SourceAlpha" type="matrix" values="0 0 0 0 0 0 0 0 0 0 0 0 0 0 0 0 0 0 127 0" result="hardAlpha"/>
<feOffset dx="3" dy="4"/>
<feGaussianBlur stdDeviation="2"/>
<feComposite in2="hardAlpha" operator="out"/>
<feColorMatrix type="matrix" values="0 0 0 0 0 0 0 0 0 0 0 0 0 0 0 0 0 0 0.25 0"/>
<feBlend mode="normal" in2="BackgroundImageFix" result="effect1_dropShadow_96_1545"/>
<feBlend mode="normal" in="SourceGraphic" in2="effect1_dropShadow_96_1545" result="shape"/>
</filter>
</defs>
</svg>
